<svg xmlns="http://www.w3.org/2000/svg" width="23.496" height="20.06" viewBox="0 0 23.496 20.06">
  <g id="グループ化_64" data-name="グループ化 64" transform="translate(-371.004 -19.5)">
    <path id="パス_133" data-name="パス 133" d="M0,0H22.5" transform="translate(371.504 20)" fill="none" stroke="#fff" stroke-linecap="round" stroke-width="1"/>
    <path id="パス_134" data-name="パス 134" d="M0,0H16.872" transform="translate(376.504 25.5)" fill="none" stroke="#fff" stroke-linecap="round" stroke-width="1"/>
    <path id="パス_80" data-name="パス 80" d="M0,0H11.248" transform="translate(382.504 31)" fill="none" stroke="#fff" stroke-linecap="round" stroke-width="1"/>
    <path id="パス_135" data-name="パス 135" d="M3.972-2.958H3.96L3-1.1H2.244l-.96-1.86H1.272V0h-.8V-4.38h.84l1.3,2.58h.012l1.3-2.58h.864V0H3.972ZM7.782-3.7v1.074H9.546v.642H7.782V-.678H9.666V0H6.942V-4.38H9.666V-3.7ZM11.754,0V-4.38h.822l1.8,2.982h.012V-4.38h.822V0h-.822l-1.8-2.982h-.012V0Zm6.4-4.38v2.652q0,1.1.858,1.1t.858-1.1V-4.38h.828v2.6a1.939,1.939,0,0,1-.438,1.377A1.648,1.648,0,0,1,19,.06a1.648,1.648,0,0,1-1.26-.465A1.939,1.939,0,0,1,17.3-1.782v-2.6Z" transform="translate(372.504 39.5)" fill="#fff"/>
  </g>
</svg>
