<svg xmlns="http://www.w3.org/2000/svg" width="41.818" height="60" viewBox="0 0 41.818 60">
  <path id="iconfinder_licence_3018526" d="M41.675,37.535l-.009,0L41.524,37a20.917,20.917,0,1,0-26.881-.179l-.565,2.109h0L10.5,52.306,9.4,56.386l4.885-2.071.024-.077L17.578,52.8l2.144,2.9L22.9,60l1.092-4.082L27.773,41.8c.136,0,.27.021.407.021.06,0,.118-.009.178-.009l3.78,14.109L33.232,60l3.176-4.3,2.144-2.9,3.265,1.435.024.077,4.885,2.071-1.093-4.08Zm-20.869,14.1-2.13-2.873-3.285,1.423L18.3,39.335a20.727,20.727,0,0,0,5.28,1.958Zm-7.959-30.73A15.334,15.334,0,1,1,28.182,36.241,15.334,15.334,0,0,1,12.848,20.909Zm24.6,27.858-2.13,2.873L32.564,41.351a20.727,20.727,0,0,0,5.29-1.915L40.738,50.19Z" transform="translate(-7.273)" fill="#fff"/>
</svg>
